<?xml version="1.0" standalone="no"?>
<!DOCTYPE svg PUBLIC "-//W3C//DTD SVG 20010904//EN"
 "http://www.w3.org/TR/2001/REC-SVG-20010904/DTD/svg10.dtd">
<svg version="1.0" xmlns="http://www.w3.org/2000/svg"
 width="96.000000pt" height="82.000000pt" viewBox="0 0 96.000000 82.000000"
 preserveAspectRatio="xMidYMid meet">

<g transform="translate(0.000000,82.000000) scale(0.100000,-0.100000)"
fill="#7D68FC" stroke="none">
<path d="M404 806 c-81 -19 -141 -50 -188 -100 -43 -45 -82 -125 -92 -186 -6
-35 -10 -40 -40 -46 -30 -6 -34 -10 -33 -38 1 -68 -26 -68 428 4 l415 65 28
52 29 53 -48 -7 c-98 -15 -104 -13 -136 42 -81 140 -207 196 -363 161z m156
-158 c42 -30 70 -76 52 -87 -13 -8 -312 -55 -317 -49 -2 2 3 21 10 43 15 43
73 101 109 108 61 12 114 6 146 -15z"/>
<path d="M456 366 l-389 -61 -30 -54 -30 -53 44 6 c24 4 55 9 69 12 31 5 38 0
75 -54 44 -65 111 -120 168 -137 108 -32 265 -11 350 47 49 33 103 103 115
151 12 43 17 42 -90 25 -56 -8 -79 -16 -83 -28 -15 -46 -149 -83 -218 -61 -34
11 -104 77 -93 88 3 4 543 92 568 93 3 0 5 8 3 18 -15 72 -15 72 -43 71 -15
-1 -202 -29 -416 -63z"/>
</g>
</svg>
