<svg xmlns="http://www.w3.org/2000/svg"
     xml:space="preserve"
     width="152"
     height="152"
     viewBox="0 0 30480 30480"
     style="shape-rendering: geometricprecision; text-rendering: geometricprecision; image-rendering: auto; fill-rule: evenodd; clip-rule: evenodd;">
    <path d="M15754.6 15407.61c-118.22 0-988.7 7.2-1027.37-4.09-11.45-39.2-4.19-634.22-4.09-759.47.04-54.96 30.43-128.41-114.55-139.97-155.35-12.39-79.35-15.34-212.95-41.57-39.26-7.71-32.15-24.84-92.8-34.45-39.25-6.22-92.92-38.37-128.47-59.08-21.56-12.55-29.82-6.51-50.29-16.69-16.16-8.03-16.09-15.21-35.81-24.47l-199.97-121.52c-172.5-122.16-381.59-358.02-475.37-542.71-9.18-18.08-15.96-17.68-24.24-36.03l-62.36-131.89c-19.95-33.25 2.21-16.18-36.9-90.36-17.66-33.5-5.31-55.34-29.12-98.14-25.87-46.5-11.45-60.22-20.88-106.37-7.58-37.09-26.54-53.16-29.76-97.51-3.11-43.01-13.74-210.97.41-240.21 36.21-17.52 716.56-7.36 816.48-7.36 56.24 0 132.66-16.98 175.35 25.6 42.73 42.61 18.33 233.86 201.92 420.97 194.9 198.64 357.99 205.49 620.84 203 186.34-1.78 641.83 25.14 792.71-37.57 436.34-181.35 589.37-666.75 321.78-1063.52-110.02-163.12-334.63-286.49-530.56-293.28-133.05-4.61-281.73 1.11-416.62 1.36-137.93.24-272.26-3.84-409.58-5.7-202.47-2.73-464.85-95.52-645.6-178.24-160.93-73.65-353.01-220.35-474.35-349.48-251.35-267.51-430.85-617.13-460.62-986.15-5-61.93-20.82-118.56-24.05-183.2-2.22-44.3 31.78-325.03 40.14-365.09 65.34-313.42 208.36-582.04 419.3-819.8 224.03-252.51 459.68-368.08 758.95-480.16 109.16-40.88 221.09-37.61 326.97-88.29 0-114.26-12.18-801.7 4.37-852.96 30.37-9.81 992.35-9.81 1022.73 0 16.55 51.26 4.36 738.7 4.36 852.96 30.05 36.79 29.68 23.08 72.71 27.76 29.78 3.24 46.39 17.74 76.36 24.11 29.39 6.24 64.94 5.51 89.51 10.96 27.04 6 36.1 22.22 72.18 28.29 47.16 7.95 35.35-3.29 76.6 23.86 30.23 19.9 45.96 8.51 75.45 25.03 34.42 19.3 39.65 17.18 69.25 31.22 14.25 6.76 18.79 14.14 32.66 20.91 14.29 6.97 23.85 6.74 38.7 14.89 178.41 97.84 314.91 203.87 457.33 353.1 75.4 79.02 136.28 163.19 198.13 250.64 12.3 17.38 5.91 19.27 16.57 37 7.32 12.2 13.72 13.62 21.14 25.76 9.81 16.08 6.29 21.67 15.71 37.86 8.58 14.72 12.13 11.43 20.24 26.65 8.15 15.3 5.88 23.59 14.15 39.44 8.93 17.12 13.66 13.35 21.47 32.1 6.1 14.65 4.81 26.21 11.4 42.18 14.59 35.34 20.05 17.83 31.08 69.4 7.91 36.96 20.34 41.88 29.62 70.84 10.15 31.61 3.25 46.11 20.43 80.05 19.1 37.72 16.51 45.97 20.17 86.99 5.82 65.18 33.01 96.91 33.13 167.8.17 96.2 7.07 106.48-.27 194.5h-997.98c-61.2-206.29-47.66-345.62-280.74-536.39-210.05-171.92-410.08-154.25-663.6-153.54-224.69.63-540.9-32.35-739.15 78.06-410.45 228.6-510.08 721.94-203.96 1086.08 250.07 297.47 635.61 241.26 989.68 242.72 136.04.57 263.74 4.75 399.31 9.26 187.73 6.25 460.16 107.94 626.3 197.53 337.04 181.74 630.81 507.03 769.68 864.61 36.99 95.26 76.67 213.98 94.25 314.32 8.78 50.16 39.86 323.94 37.63 366.15l-50.89 358.32c-29.44 106.23-58.17 209.81-105.07 310.2-226.21 484.2-594.33 797.92-1098.29 951.25-58.03 17.65-102.41 31.25-163.73 37.21-65.61 6.37-116.03.31-127.49 80.15l.33 824.17zm-953.61-9162.67h685.05c200.02 6.29 385.19 17.7 495.66 34.13 363.19 53.99 721.45 141.08 1066.75 266.12 1917.15 694.21 3296.69 2450.35 3496.34 4487.29 142.48 1453.74-318.48 2908.37-1274.81 4012.43-894.14 1032.25-2142.64 1687.68-3503.68 1819.99-2918.14 283.68-5535.73-1841.55-5831.92-4759.1-39.31-387.3-30.97-885.19 21.27-1271.19 48.28-356.73 140.45-731.29 263.41-1069.71 560.5-1542.67 1811.89-2778.4 3380.75-3276.92 174.48-55.44 343.74-101.55 522.71-140.38 164.83-35.77 401.64-81.98 567.13-95.96 31.54-2.67 69.15-4.89 111.34-6.7z"
          style="fill: rgb(121, 106, 249);" />
    <path d="m11715.8 19171.81-1138.68-.05c-125.63-.34-258.87 7.55-382.77-.99-106.28-7.32-257.56-38.51-278.37 103.4-11.01 75.1 14.76 238.25 4.93 386.42-24.96 376.45 25.66 295.4 259.95 503.63 129.38 114.96 281.86 228.56 417.39 339.47 977.9 800.25 1967.91 1589.58 2947.56 2390.63 278.93 228.07 559.26 454.36 839.02 681.39l632.76 509.85c61.89 50.88 136.12 149.51 221.19 149.5 84.71-.01 157.64-94.98 218.47-145.88 66.9-55.99 142.26-112.65 211.16-167.73l4207.84-3414.31c138.52-112.82 287.59-225.19 421.59-341.97 231.95-202.14 283.22-132.26 259.39-497.88-4.28-65.68-6.58-120.45-1.56-186.48 21.96-289.04 22.06-330.84-265.07-310.55-134.76 9.52-594.79 1.55-765.1 1.55h-763.55v-2163.42c0-24.22.97-50.17.39-74.06-.95-38.59-6.07-28.45-13.79-59.89-82.53 20.82-270.14 153.18-359.65 202.97-426.52 237.22-702.46 367.47-1182.87 525.08l-553.97 156c-41.97 14.51-79.77 9.42-120.32 20.34-46.75 12.6-60.39 24.4-113.74 26.92-64.06 3.02-65.46 7.19-123.37 23.98-44.34 12.85-83.32 9.61-128.22 12.44-44.64 2.81-74.6 15.93-116.66 23.99-85.1 16.31-184.6 3.89-266.91 21.1-173.59 36.3-366.16 25.34-543.97 25.34-160.01 0-386.63 10.31-538.5-24.12-79.69-18.06-179.32-6.51-261.48-19.83-40.1-6.5-74.37-21.77-115.01-25.64-46.26-4.4-89.35.64-135.59-11.76-132.55-35.52-97.71-12.67-229.31-52.01-41.58-12.42-81.14-4.51-123.41-17.24-50.1-15.09-64.36-20.05-117.73-29.61-62.55-11.2-361.15-105.98-439.12-130.21-419.35-130.29-981.63-382.15-1362-627.25-61.2-39.43-115.93-81.85-187.52-100.49-6.09 27.22-11.9 19.89-13.68 53.29l.28 2244.08z"
          style="fill: rgb(247, 127, 101);" />
</svg>