<svg xmlns="http://www.w3.org/2000/svg"
     xml:space="preserve"
     width="152"
     height="152"
     viewBox="0 0 30480 30480"
     style="shape-rendering: geometricprecision; text-rendering: geometricprecision; image-rendering: auto; fill-rule: evenodd; clip-rule: evenodd;">
    <defs>
        <style>.fil1{fill:#f77f65;fill-rule:nonzero}</style>
    </defs>
    <g id="Layer_x0020_1">
        <g id="_2620013529360">
            <path d="M23200.12 10084.34v2616.23c-2.81 101.84-7.75 202.72-15.88 301.49-153.85 1865.16-1009.06 3177.19-2474.8 4257.28-242.82 178.96-1142.1 807.68-1387.16 853.22-164.61 30.55-297.32-17.61-435.09-103.51-114.66-71.54-230.08-138.99-344.73-209.83-1774.14-1097-3003.28-2404.66-3252.25-4601.8-99.73-880-47.21-1853.26-59.31-2750.67-2.11-158.21-13.9-361.51 47.2-509.34 100.18-242.11 455.22-342.09 681.57-440.48 910.68-395.7 1838.97-779.37 2745.93-1176.74 84.61-37.09 318.14-146.55 395.2-161.41 161.79-31.13 321.53 14.41 466.03 82.18 128.74 60.33 257.55 112.09 387.83 168.32 261.46 112.92 523.62 224.44 785.52 336.53 523.62 224.05 1046.47 450.53 1570.66 673.3 191.9 81.6 615.79 238.46 757.66 364.39 92.62 82.17 122.46 187.86 131.62 300.84zm-2005.5 1634.84c-37.47 207.46-293.35 471.29-428.75 640.32-158.53 197.85-316.86 395.84-475.2 593.82-314.87 393.65-644.35 788.27-951.09 1186.86-155.45 201.95-314.24 462-594.84 473.27-307.32 12.3-444.58-253.7-590.04-472.76-142-213.99-286.63-426.9-427.03-641.98-70.65-108.31-144.31-215.27-215.91-323.01-64.89-97.42-162.31-225.97-210.54-327.55-129.45-272.54 3.97-577.36 287.78-670.68 140.4-46.18 295.4-20.31 418.25 60.78 94.29 62.26 178.96 202.53 241.28 297.9 135.54 207.4 302.96 431.64 425.56 642.11 114.84 197.15 144.18 54.32 244.48-60.14 80.71-92.11 161.79-201.95 239.94-298.67 318.39-394.11 633.65-792.31 949.36-1188.66 157.76-198.04 311.03-462.25 594.27-473.53 299.37-11.78 545.71 267.03 492.48 561.92z"
                  style="fill: rgb(121, 106, 249);" />
            <path class="fil1"
                  d="M7546.7 11145.93c155.32-114.4 338.51-193.89 529.25-223.41 143.22-22.23 339.73-17.87 510.55-14.03 38.56.77 71.55 1.66 159.94 1.66l4670.92-.44c144.95-1.29 290.98-2.57 432.47.89 70.52 1.67 135.09-1.6 187.61-4.35 55.14-2.89 99.98-5.19 141.49-2.24 264.97 19.66 333.32 109.39 306.86 467.44v.9c-9.41 126.95-6.53 272.02-3.84 411.2 1.35 68.03 2.63 135.09 2.69 201.38l32.8 909.65 5.89 55.21c6.98 65.59 13.9 129.13 23.31 232.06 13.84 152.12 40.1 312.12 66.36 472.44l11.4 69.75c9.54 58.8 23.89 115.74 35.74 162.76 18.51 74.1 32.79 130.72 29.78 196.25-9.92 218.73-107.54 299.44-408.9 285.54-150.45-6.92-301.74-5.7-451.49-4.55l-179.79 1.86v-.9l-6057.82-2.88v.9c-9.73 0-28.25 1.6-48.68 3.33-131.81 11.14-305.52 25.81-417.99-107.1-18.32-21.97-32.61-45.6-43.75-70.58l-.9-2.63c-9.09-21.07-16.07-41.89-20.56-61.68l-6.15-26.9v-225.72l3.59-58.47c-1.35-105.94-3.59-212.33-3.59-318.27h.9v-1332.33l-.9-1.79v-101.39l.9-3.53c1.41-81.6 7.69-150.2 26.32-225.27 18-72.44 47.02-148.08 94.48-244.99 84.87-173.45 215.34-325.06 371.11-439.77zM23426.1 19599.82v1484.39l-.9 3.52c-1.41 72.7-3.08 132.2-4.93 173.07v.83c-2.37 51.43-5.64 90.63-9.55 113.62-21.71 124.71-75.38 250.57-146.93 364.71-74.94 119.71-170.7 228.21-269.27 309.11-117.41 96.4-237.76 165.12-367.52 210.47-128.17 44.77-263.57 65.85-412.68 67.51-372.78 4.29-748.63 2.31-1123.72.32-126.11-.64-265.49-1.34-629.23-1.34H10000.94c-329.28 0-462.89 1.09-605.21 2.11-381.3 2.88-764.39 5.7-1140.37-1.34-278.36-5.26-553.78-110.24-769.12-284.84-208.94-169.35-363.94-405.83-414.67-682.97-5.64-29.66-9.48-67.51-12.04-110.88-1.86-31.64-3.46-78.08-4.74-134.06l-.9-4.42v-5224.64l7762.6-.57v-.9c101.26 0 130.47-.57 159.36-1.02 62.7-1.09 125.47-2.18 189.91-1.86 93.07.38 163.84 11.66 233.79 48.49 73.85 39 125.92 94.73 176.58 181.32h.9c55.98 95.82 142.9 215.6 237.12 334.29 115.61 145.71 240.38 288.16 335.3 385.9 251.72 259.47 463.67 462.77 686.25 653 221.36 189.34 455.78 367.66 753.56 578 233.33 164.87 477.69 314.43 721.21 463.41l102.03 62.45c148.86 91.27 298.16 171.53 450.15 222.45 143.09 47.97 292.59 71.29 452.72 54.89 326.14-33.44 522.27-152.7 790.83-316.03l87.37-52.46v-.89c428.57-258.19 859.88-550.46 1260.78-872.7 350.68-281.89 679.26-587.15 963.71-912.98 59.76-68.41 177.49-208.17 278.24-337.04 64.56-82.56 120.8-158.59 145.78-202.01l1.54-2.89c76.09-132.13 97.23-168.13 244.41-252.87l338.07-194.65v3879.5z" />
        </g>
    </g>
</svg>