<svg xmlns="http://www.w3.org/2000/svg"
     xml:space="preserve"
     width="152"
     height="152"
     viewBox="0 0 30480 30480"
     style="shape-rendering: geometricprecision; text-rendering: geometricprecision; image-rendering: auto; fill-rule: evenodd; clip-rule: evenodd;">
    <defs>
        <style>.fil2{fill:#796af9}</style>
    </defs>
    <g id="Layer_x0020_1">
        <g id="_2621707536032">
            <path d="m15052.81 15704.4-28.82-41.57-318.27 199.2c-175.31 109.4-350.11 218.54-560.13 351.7-76.54 48.55-159.29 95.38-246.66 139.31-381.94 192.16-820.37 305.85-1227.86 274.66-433.11-33.18-829.91-223.73-1096.1-643.59v-.9c-27.99-44.26-54.32-90.63-78.72-139.05-124.96-248.52-161.6-533.74-114.14-801.86 46.82-265.1 176.08-516.89 383.47-704.43 462.13-418.12 1554.97-1330.4 2576.9-1963.93 671.07-416.01 1322.78-715.71 1780.24-695.91 284.83 12.29 923.74 145.07 1573.03 279.96 691.55 143.73 1395.67 290.03 1619.97 286.95l611.75-271.64c125.74-55.79 254.29-84.8 384.05-86.72 130.22-1.99 259.03 22.8 385.08 74.23 127.14 51.82 236.99 124.39 328.52 216.88 91.14 91.98 162.75 202.78 213.67 331.08l1654.18 4166.32c94.99 239.23 90.12 494.16 3.78 717.25-86.66 224.05-254.86 416.2-485.7 528.87l-914.13 446.43c-222.77 114.84-466.3 240.32-760.8 74.68-471.8-265.23-1106.55-747.28-1686.53-1187.63-265.81-201.89-519.84-394.81-754.65-562.69l-7.04-5.31c-23.32-18-42.15-34.21-58.93-48.81-3.46-3.01-.7-6.02-3.07-5.44-51.95 13.7-102.93 28.95-154.18 44.13-159.42 47.33-322.3 95.69-498.57 107.54-44.58 2.94-90.63 10.69-136.49 18.44-62.45 10.44-125.03 21.01-202.59 24.54-105.05 4.74-237.06-1.16-367.53-14.29-133.16-13.38-268.44-34.97-374.51-60.53-138.54-33.3-302.76-93.38-456.87-165.63-150.78-70.78-294.76-154.04-400.38-237.25-297.65-234.23-461.3-470.51-581.97-644.99zm-1647.01-3412.7 4.04-4.23c10.63-21.2 6.15-13.45-4.04 4.23z"
                  style="fill: rgb(247, 127, 101);" />
            <path d="M9562.61 18349.83c245.83-263.69 417.04-447.26 865.65-508.3 119.71-16.21 238.14-12.49 353.69 8.64 118.69 21.78 233.28 61.68 341.84 116.7 212.78 107.74 266.39 186.39 357.47 320.07 20.18 29.59 42.92 62.96 64.05 91.4l27.1 35.35c53.03 68.03 116.63 149.31 145.65 237.12 6.15 18.64 13.26 48.23 20.24 77.31h.89c.2.83-1.28 1.02-3.77.9l-7.37 1.73 35.04 4.48c114.77 13.58 254.41 30.17 491.39 191.45 60.47 41.89 141.24 121.37 212.78 203.62 73.21 83.26 144.05 179.08 178.96 245.7 55.28 105.55 72.38 184.01 86.09 247.42.83 3.98-1.22-6.02 41.05-3.13 103.96 7.17 220.85 46.69 326.21 102.09 107.93 56.75 210.48 133.49 278.18 210.41 30.36 34.46 123.17 156.35 197.53 261.58 59.5 84.23 112.03 167.75 127.46 215.41 11.47 34.91 17.04 59.76 22.23 83.84.13.64-1.09.83-3.27.71l-9.03 1.92 41.76 6.53c66.42 9.42 133.8 18.96 227.77 64.82l.38-.7c53.68 26.13 169.8 95.24 271 162.62 84.42 56.24 164.29 116.32 204.13 160.9h.9c53.16 59.63 113.75 158.46 164.54 259.4 52.53 104.47 98.13 217.84 116.77 296.88 153.21 649.03-260.62 1052.74-609.7 1393.05-43.36 42.33-85.7 83.58-123.81 122.59-83.4 85.31-174.8 166.28-265.43 246.72l-102.1 91.79c-83.52 75.83-175.05 137.52-275.1 181.84-101.2 44.83-211.36 71.67-330.82 77.18l-9.74.9c-97.42 0-211.17 7.11-306.48-1.8-66.87-6.21-129-17.42-192.47-36.63-61.94-19.03-127.46-45.42-202.53-82.37-128.3-63.61-264.4-174.54-372.71-303.28-104.22-123.75-187.16-268.31-220.34-409.42-11.02-47.01 3.33-45.41-2.43-46.05-67-7.43-152.64-17.23-271.45-66.55-143.16-59.44-271.13-138.93-381.49-239.49-108.44-98.83-199.2-216.94-269.59-354.97l.7-.38c-43.04-84.42-57.32-142.9-71.16-199.65-4.8-19.66-9.6-39.2-15.62-56.49l-1.48 20.75c.96 6.41 1.09 10.83-.77 10.7-15.63-1.09-31.38-2.24-63.21-6.28-184.92-23.7-388.67-137.13-554.3-285.41-168.14-150.46-306.74-344.6-354.97-523.62l-12.88-54.63c-.77-3.53 7.3-3.97 16.4-3.72l12.81-2.88c-26.26-8.65-55.15-13.26-84.74-18-59.89-9.48-122.27-19.47-198.62-48.1-71.93-26.84-171.47-84.68-261.97-147.96-91.02-63.6-179.53-137.13-229.11-194.91-52.39-61.23-111.96-161.72-161.41-263.63-50.15-103.31-93.77-216.36-111.38-296.24-25.62-116.12-31.2-238.97-19.22-358.87 12.49-124.33 42.98-246.22 88.65-354.91h.83c68.86-163.78 379.89-476.8 578-676.12l110.74-112.54 91.59-97.49z"
                  style="fill: rgb(247, 127, 101); fill-rule: nonzero;" />
            <path class="fil2"
                  d="m7802.3 17719.06 933.16 490.5 386.74-389.49c86.92-87.56 132.39-133.36 184.59-177.36 56.62-47.84 114.46-88 235.07-171.66l30.17-21c142.58-98.96 380.65-194.21 617.58-249.1 218.8-50.66 446.88-69.37 616.36-29.72 53.61 12.49 78.59 17.55 105.05 22.8l.19-.83c95.24 19.02 196.31 39.33 283.29 72.51 167.05 63.66 337.23 153.59 492.3 265.23 144.44 104.09 275.36 227.26 378.41 366.25 40.23 54.38 71.61 109.4 102.36 163.33 22.29 39.13 44.38 77.82 68.28 109.84 4.93 6.66 161.34 89.74 296.81 168.2 85.31 49.51 160.51 93.07 197.6 117.6 86.72 57.39 175.37 143.99 254.47 237.76v.89c89.03 105.69 169.54 223.99 221.36 319.11 23.12 42.4 36.83 47.78 67.57 59.69 23.45 9.1 50.16 19.47 78.92 31.96 195.67 85.19 342.35 192.99 468.27 318.14 117.79 117.09 213.68 247.05 316.41 387.96 22.68 31.13 38.69 56.17 53.49 79.3 20.04 31.51 35.22 55.14 64.75 66.22 410.12 154.05 526.31 308.03 741.2 593.12l75.39 100.56c201.37 261.77 235.77 306.67 326.66 674.13 36.89 149.31 43.42 308.79 32.02 465.08-10.95 149.24-38.55 297.39-71.35 430.74-63.79 259.6-173.39 417.16-307.12 609.57l-28.57 41.12c-24.79 34.91-47.72 60.92-68.21 84.3-8.59 9.8-11.53 9.54-13.84 13.96-39.13 74.11 86.41-90.89 236.86-11.47 84.04 44.45 160.13 59.89 258.77 79.75l20.24 4.1c145.71 29.52 146.61 29.46 270.36 9.99l35.29-5.57c56.62-8.84 167.49-47.59 278.43-94.8 99.6-42.47 191.13-88.45 230.13-120.42 113.25-92.74 166.34-172.48 237.31-279.13 30.62-45.99 64.5-96.78 119.52-172.43 7.05-9.67 15.05-23.05 23.64-39.83 7.04-13.84 12.23-25.63 14.79-34.08l1.09-13.71c15.05-119.2 31.58-247.62 222.77-298.09 77.25-20.62 141.42-4.48 208.68 12.55l44.07 11.34 106.83.83v.9c34.4 0 67.83-.64 90.38-2.69 34.78-3.2 88.26-14.22 143.66-28.63 52.53-13.64 104.09-30.3 138.8-45.67 131.5-58.29 248.65-125.22 347.29-209.64 94.79-81.09 175.69-181.52 240.06-310.52l4.61-9.28c51.95-103.96 72.25-144.57 90.76-255.82 44.01-262.93 124.39-299.12 335.25-264.09 20.3 3.4 35.86 6.99 52.71 10.89 36.57 8.65 88.71 20.69 155.96 20.24 217.78-1.34 394.69-45.03 545.21-130.73 153.33-87.23 286.11-221.61 412.23-402.17 17.16-24.6 43.75-71.68 69.49-123.3h.9c19.41-38.82 35.74-75.71 41.95-98.13 9.29-33.49 15.5-62.7 20.18-85.06v-.83c21.01-99.34 31.64-150.65 122.47-211.75 84.03-56.37 137-50.47 245.37-37.79 20.76 2.37 46.19 5.44 87.82 8.97 179.15 15.3 362.14-27.74 525.67-112.09 172.93-89.1 322.94-222.64 423.63-380.72 41.95-65.98 80.51-147.19 108.37-233.08-201.89 73.65-395.13 118.17-690.53 47.01-272.79-65.65-470.46-209.32-670.74-354.84l-126.06-90.7c-256.97-178.19-545.07-382.13-835.22-591.06-279.33-201.12-559.29-406.21-812.68-595.8-29.21-21.85-54.19-42.34-78.59-62.45-56.36-46.31-111.19-91.34-158.59-94.99-54.83-4.23-138.93 16.01-221.3 35.93-67.12 16.21-133.67 32.35-205.92 41.38v.83c-271 33.95-566.92 44.52-857.45 19.86-259.73-21.97-517.73-72.83-753.43-160.71-168.33-62.77-293.29-118.24-413.58-184.85-121.06-67.51-231.54-142-371.24-242.94l-66.42-46.63c-102.67-72.06-175.76-123.43-281.57-246.73-28.89-33.62-49.19-57-51.43-57.84-13.26-4.93 15.56 10.19 3.52 16.72-81.41 44.26-191.64 116.19-308.21 192.28-128.94 84.17-265.75 173.45-395.77 246.02-318.27 177.68-652.81 290.35-996.57 326.79-332.43 35.36-671.13-.38-1009.57-116.76-131.57-45.22-279.65-113.69-420.24-192.86-137.46-77.38-270.17-166.79-375.92-256.33-75.58-63.93-173.06-188.83-264.08-322.69-105.49-155.2-207.65-330.06-253-429.59-72.38-158.79-116.26-348.76-133.48-539.7v-.89c-17.94-200.03-7.5-404.42 29.52-576.91 25.82-120.35 96.46-303.15 179.28-470.71 77.38-156.8 169.54-308.02 252.04-395.13l3.14-3.33c149.88-158.27 215.34-227.45 288.23-290.35 57.65-49.76 109.46-86.85 201.12-152.31l140.27-101.14c183.64-133.22 326.21-239.29 469.11-345.49l179.66-133.48c98.96-73.27 154.24-113.37 210.03-153.79 150.84-109.27 305.07-220.97 433.37-323.84 59.56-47.72 118.36-86.21 175.11-123.3l47.91-31.38c-111.13-55.6-228.47-113.31-348.5-162.5-121.82-50.15-246.21-90.31-367.72-107.22-146.86-20.43-318.91-25.75-490.31-15.37-161.15 9.8-320.57 33.75-455.66 72.25l-867.82 259.79c-139.7 48.23-272.54 60.72-401.47 47.72-128.62-13.01-248.65-50.41-365.09-101.84-70.65-31.2-140.15-47.4-207.34-48.3-69.24-.96-139.5 13-209.96 41.83-68.47 27.99-127.84 67.31-177.23 117.21-49.19 49.77-87.87 109.59-115.42 178.89l-1752.56 4414.08c-50.34 126.76-48.81 262.22-4.48 382.06 43.94 118.56 130.85 221.81 251.91 285.35zM14865.67 9165.11c33.87 225.64-70.86 246.66 185.7 453.45 66.23 53.24 92.38 47.96 174.43 46.88 159.77-1.95 195.81-11.41 300.11-136.01 121.42-144.82 84.94-172.55 83.86-359.05-3.54-586.06-7.01-1172.28-10.11-1758.34-.8-168.58 25.93-216.04-83.35-352.98-54.61-68.48-210.34-148-293.9-142.22-89.57 6.14-226.73 76.41-285.74 147.2-96.72 116.36-74.25 214.23-88.55 354.28-8.82 86.24 4.33 1129.52 5.41 1311.97.8 143.88-8.95 293.54 12.14 434.82zm1995.68 925.76c67.39 280.46 331.9 414.23 583.4 249.91 92.96-60.74 160.71-175.66 208.88-273.68 79.17-160.99 438.51-770.25 535-931.46 59.74-99.97 119.4-204.41 176.32-305.96 99.82-177.9 125.39-158.4 111.45-382.09-5.86-93.04-131.1-229.62-221.1-262.41-157.67-57.71-215.53-63.2-366.99 29.25-105.82 64.5-320.63 460.82-387.08 587.58-103.21 197.19-244.13 420.59-360.64 613.73-61.25 101.49-112.6 203.47-176.67 305.46-73.31 116.51-136.15 229.11-102.57 369.67zm-4848.66-1411.93c31.86 103.64 605.86 1043.42 713.91 1231.14 92.02 159.84 254.4 480.25 448.76 517.59 128.72 24.78 270.07-23.98 357.39-121.13 108.35-120.91 123.66-216.18 85.88-375.51-22.1-92.31-285.73-504.02-352.91-614.89-121.92-201.59-237.99-415.46-364.1-613.3-132.04-207.29-191.7-435.39-450.79-515.35-179.2-55.4-404.69 106.1-445.29 253.88-10.18 36.84-4.91 198.34 7.15 237.57z" />
        </g>
    </g>
</svg>